<svg width="41" height="40" viewBox="0 0 41 40" fill="none" xmlns="http://www.w3.org/2000/svg">
<path d="M14.7424 35C17.0855 35 18.9848 32.7614 18.9848 30C18.9848 27.2386 17.0855 25 14.7424 25C12.3994 25 10.5 27.2386 10.5 30C10.5 32.7614 12.3994 35 14.7424 35Z" stroke="#2C001B" stroke-width="1.5" stroke-miterlimit="10" stroke-linecap="round" stroke-linejoin="round"/>
<path d="M26.2576 35C28.6006 35 30.5 32.7614 30.5 30C30.5 27.2386 28.6006 25 26.2576 25C23.9145 25 22.0151 27.2386 22.0151 30C22.0151 32.7614 23.9145 35 26.2576 35Z" stroke="#2C001B" stroke-width="1.5" stroke-miterlimit="10" stroke-linecap="round" stroke-linejoin="round"/>
<path d="M15.8535 25.102L20.5 20.5102" stroke="#2C001B" stroke-width="1.5" stroke-miterlimit="10" stroke-linecap="round" stroke-linejoin="round"/>
<path d="M25.1465 25.102L20.5 20.5102" stroke="#2C001B" stroke-width="1.5" stroke-miterlimit="10" stroke-linecap="round" stroke-linejoin="round"/>
<path d="M25.1465 12.1429L20.5 16.8368" stroke="#2C001B" stroke-width="1.5" stroke-miterlimit="10" stroke-linecap="round" stroke-linejoin="round"/>
<path d="M15.8535 12.1429L20.5 16.8368" stroke="#2C001B" stroke-width="1.5" stroke-miterlimit="10" stroke-linecap="round" stroke-linejoin="round"/>
<path d="M20.4998 20.5102C21.504 20.5102 22.318 19.6879 22.318 18.6735C22.318 17.6591 21.504 16.8367 20.4998 16.8367C19.4957 16.8367 18.6816 17.6591 18.6816 18.6735C18.6816 19.6879 19.4957 20.5102 20.4998 20.5102Z" stroke="#2C001B" stroke-width="1.5" stroke-miterlimit="10" stroke-linecap="round" stroke-linejoin="round"/>
<path d="M27.3686 11.9388C22.7222 10.4082 18.0757 10.4082 13.4292 11.9388V6.73471C18.0757 5.51022 22.7222 5.51022 27.3686 6.73471V11.9388Z" stroke="#2C001B" stroke-width="1.5" stroke-miterlimit="10" stroke-linecap="round" stroke-linejoin="round"/>
<path d="M13.5 6.73469V5" stroke="#2C001B" stroke-width="1.5" stroke-miterlimit="10" stroke-linecap="round" stroke-linejoin="round"/>
<path d="M27.3687 6.73469V5" stroke="#2C001B" stroke-width="1.5" stroke-miterlimit="10" stroke-linecap="round" stroke-linejoin="round"/>
<path d="M13.5303 10C13.5303 10 14.4394 9.08165 16.0555 8.87756" stroke="#2C001B" stroke-width="1.5" stroke-miterlimit="10" stroke-linecap="round" stroke-linejoin="round"/>
<path d="M27.3689 10.2041C27.3689 10.2041 26.1568 9.28575 25.4497 9.08167" stroke="#2C001B" stroke-width="1.5" stroke-miterlimit="10" stroke-linecap="round" stroke-linejoin="round"/>
<path d="M23.4293 8.97961C23.764 8.97961 24.0353 8.70551 24.0353 8.36738C24.0353 8.02924 23.764 7.75513 23.4293 7.75513C23.0946 7.75513 22.8232 8.02924 22.8232 8.36738C22.8232 8.70551 23.0946 8.97961 23.4293 8.97961Z" fill="#2C001B"/>
</svg>
