<svg width="40" height="40" viewBox="0 0 40 40" fill="none" xmlns="http://www.w3.org/2000/svg">
<path d="M17.2 15.1C17.2 15.1 18.3 22.5 25.1 23.5C31.9 24.5 31.1 30.1 31.1 30.1C31.1 30.1 40 17.8 28.8 9.89999C28.8 9.89999 26.8 4 20.9 4C15 4 12.1 9.89999 12.1 9.89999C12.1 9.89999 6 10.4 6 17C6 23.6 11.4 24.4 11.4 24.4C11.4 24.4 10.3 16.9 17.2 15.1Z" fill="#E94B65" stroke="#2C001B" stroke-width="1.5" stroke-miterlimit="10" stroke-linecap="round" stroke-linejoin="round"/>
<path d="M29.3999 26.4C29.3999 26.4 25.2999 35.9 20.1999 35.9C16.2428 35.9 13.1626 30.3254 12.0498 28" stroke="#2C001B" stroke-width="1.5" stroke-miterlimit="10" stroke-linecap="round" stroke-linejoin="round"/>
</svg>
