<svg width="40" height="40" viewBox="0 0 40 40" fill="none" xmlns="http://www.w3.org/2000/svg">
<path d="M33.8349 9.49603V19.2283C33.8349 20.9291 32.4175 22.3464 30.7168 22.3464C29.016 22.3464 27.5986 20.9291 27.5986 19.2283V9.49603H33.8349Z" fill="#E94B65" stroke="#2C001B" stroke-width="1.5" stroke-miterlimit="10" stroke-linecap="round" stroke-linejoin="round"/>
<path d="M33.8345 19.2284V33.1181H24.9526V20.5512C24.9526 18 25.992 15.7323 27.6928 14.126V19.2284C27.6928 20.9292 29.1101 22.3465 30.8109 22.3465C32.4172 22.3465 33.8345 20.9292 33.8345 19.2284Z" stroke="#2C001B" stroke-width="1.5" stroke-miterlimit="10" stroke-linecap="round" stroke-linejoin="round"/>
<path d="M15.9765 10.5354V20.2677C15.9765 21.9685 14.5592 23.3858 12.8584 23.3858C11.1576 23.3858 9.74023 21.9685 9.74023 20.2677V10.5354H15.9765Z" fill="#E94B65" stroke="#2C001B" stroke-width="1.5" stroke-miterlimit="10" stroke-linecap="round" stroke-linejoin="round"/>
<path d="M15.9764 20.2677V33.1181H7V21.7795C7 19.2283 8.03936 16.9606 9.74015 15.3543V20.2677C9.74015 21.9685 11.1575 23.3858 12.8583 23.3858C14.5591 23.3858 15.9764 21.9685 15.9764 20.2677Z" stroke="#2C001B" stroke-width="1.5" stroke-miterlimit="10" stroke-linecap="round" stroke-linejoin="round"/>
<path d="M24.9525 6V15.7323C24.9525 17.4331 23.5352 18.8504 21.8344 18.8504C20.1336 18.8504 18.7163 17.4331 18.7163 15.7323V6H24.9525Z" fill="#E94B65" stroke="#2C001B" stroke-width="1.5" stroke-miterlimit="10" stroke-linecap="round" stroke-linejoin="round"/>
<path d="M24.9529 15.6378V33.1181H15.9766V16.9606C15.9766 14.4094 17.0159 12.1417 18.7167 10.5354V15.6378C18.7167 17.3385 20.1341 18.7559 21.8348 18.7559C23.5356 18.7559 24.9529 17.433 24.9529 15.6378Z" stroke="#2C001B" stroke-width="1.5" stroke-miterlimit="10" stroke-linecap="round" stroke-linejoin="round"/>
</svg>
