<svg width="41" height="40" viewBox="0 0 41 40" fill="none" xmlns="http://www.w3.org/2000/svg">
<path d="M15.4999 21.275V27.975C15.4999 29.775 13.9999 31.275 12.1999 31.275C10.3999 31.275 8.8999 29.775 8.8999 27.975V21.375" stroke="#2C001B" stroke-width="1.5" stroke-miterlimit="10" stroke-linecap="round" stroke-linejoin="round"/>
<path d="M26.5 20.575L10.8 21.575C7.3 21.575 4.5 18.775 4.5 15.275C4.5 12.275 6.7 9.675 9.5 9.075C10.2 8.975 10.9 8.975 11.6 9.075L26.5 10.975V20.575Z" stroke="#2C001B" stroke-width="1.5" stroke-miterlimit="10" stroke-linecap="round" stroke-linejoin="round"/>
<path d="M26.5 20.675L30.3 21.875V9.875L26.5 11.075V20.675Z" stroke="#2C001B" stroke-width="1.5" stroke-miterlimit="10" stroke-linecap="round" stroke-linejoin="round"/>
<path d="M11.3 19.075C13.3987 19.075 15.1 17.3737 15.1 15.275C15.1 13.1763 13.3987 11.475 11.3 11.475C9.20132 11.475 7.5 13.1763 7.5 15.275C7.5 17.3737 9.20132 19.075 11.3 19.075Z" stroke="#2C001B" stroke-width="1.5" stroke-miterlimit="10" stroke-linecap="round" stroke-linejoin="round"/>
<path d="M32.7998 16.075H37.2998" stroke="#2C001B" stroke-width="1.5" stroke-miterlimit="10" stroke-linecap="round" stroke-linejoin="round"/>
<path d="M32.7998 13.275L36.5998 10.975" stroke="#2C001B" stroke-width="1.5" stroke-miterlimit="10" stroke-linecap="round" stroke-linejoin="round"/>
<path d="M36.5998 21.075L32.7998 18.875" stroke="#2C001B" stroke-width="1.5" stroke-miterlimit="10" stroke-linecap="round" stroke-linejoin="round"/>
</svg>
