<svg width="40" height="40" viewBox="0 0 40 40" fill="none" xmlns="http://www.w3.org/2000/svg">
<path d="M27.5 31.4L25.7 30.9L26.2 32.7C24.4 34.3 22.3 35.3 20 35.3C17.8 35.3 15.7 34.3 13.8 32.7L14.3 30.9L12.5 31.4C9.2 27.8 7 22.2 7 17.9C7 15.3 7.80001 12.8 9.20001 10.7L12.4 11.6L11.5 8.2C13.8 6.2 16.8 5 20.1 5C23.4 5 26.4 6.2 28.7 8.2L27.8 11.6L31 10.7C32.4 12.8 33.2 15.2 33.2 17.9C33 22.2 30.9 27.7 27.5 31.4Z" fill="#E94B65" stroke="#2C001B" stroke-width="1.5" stroke-miterlimit="10" stroke-linecap="round" stroke-linejoin="round"/>
<path d="M14.5998 21.7C16.4224 21.7 17.8998 20.8046 17.8998 19.7C17.8998 18.5954 16.4224 17.7 14.5998 17.7C12.7773 17.7 11.2998 18.5954 11.2998 19.7C11.2998 20.8046 12.7773 21.7 14.5998 21.7Z" fill="white" stroke="#2C001B" stroke-width="1.5" stroke-miterlimit="10" stroke-linecap="round" stroke-linejoin="round"/>
<path d="M25.4997 21.7C27.3222 21.7 28.7997 20.8046 28.7997 19.7C28.7997 18.5954 27.3222 17.7 25.4997 17.7C23.6772 17.7 22.1997 18.5954 22.1997 19.7C22.1997 20.8046 23.6772 21.7 25.4997 21.7Z" fill="white" stroke="#2C001B" stroke-width="1.5" stroke-miterlimit="10" stroke-linecap="round" stroke-linejoin="round"/>
<path d="M20 29.6C21.6569 29.6 23 29.018 23 28.3C23 27.582 21.6569 27 20 27C18.3431 27 17 27.582 17 28.3C17 29.018 18.3431 29.6 20 29.6Z" fill="white" stroke="#2C001B" stroke-width="1.5" stroke-miterlimit="10" stroke-linecap="round" stroke-linejoin="round"/>
</svg>
