<svg width="40" height="40" viewBox="0 0 40 40" fill="none" xmlns="http://www.w3.org/2000/svg">
<path d="M11.5 27.4L11 21.7C13.6667 20.7667 20.4 19.46 26 21.7L25.5 27.4C25.3 30.3 22.8 32.5 19.9 32.5H17.1C14.2 32.5 11.8 30.3 11.5 27.4Z" fill="#E94B65"/>
<path d="M21.8 17.4H15.3C12.9 17.4 11 19.3 11 21.7L11.5 27.4C11.8 30.3 14.2 32.5 17.1 32.5H19.9C22.8 32.5 25.3 30.3 25.5 27.4L26 21.7C26.1 19.3 24.1 17.4 21.8 17.4Z" stroke="#2C001B" stroke-width="1.5" stroke-miterlimit="10" stroke-linecap="round" stroke-linejoin="round"/>
<path d="M18.5 23.7C22.6421 23.7 26 23.0284 26 22.2C26 21.3716 22.6421 20.7 18.5 20.7C14.3579 20.7 11 21.3716 11 22.2C11 23.0284 14.3579 23.7 18.5 23.7Z" stroke="#2C001B" stroke-width="1.5" stroke-miterlimit="10" stroke-linecap="round" stroke-linejoin="round"/>
<path d="M18.5 28.5V17.4" stroke="#2C001B" stroke-width="1.5" stroke-miterlimit="10" stroke-linecap="round" stroke-linejoin="round"/>
<path d="M21.0002 17.4H15.7002V13.4C15.7002 12.7 16.3002 12.1 17.0002 12.1H19.7002C20.4002 12.1 21.0002 12.7 21.0002 13.4V17.4Z" fill="white" stroke="#2C001B" stroke-width="1.5" stroke-miterlimit="10" stroke-linecap="round" stroke-linejoin="round"/>
<path d="M19.7 7.09998H17V12H19.7V7.09998Z" fill="white" stroke="#2C001B" stroke-width="1.5" stroke-miterlimit="10" stroke-linecap="round" stroke-linejoin="round"/>
<path d="M19.7998 9.20001H23.1998" stroke="#2C001B" stroke-width="1.5" stroke-miterlimit="10" stroke-linecap="round" stroke-linejoin="round"/>
<path d="M26.3001 11.4C28.0674 11.4 29.5001 10.415 29.5001 9.2C29.5001 7.98497 28.0674 7 26.3001 7C24.5328 7 23.1001 7.98497 23.1001 9.2C23.1001 10.415 24.5328 11.4 26.3001 11.4Z" fill="#E94B65" stroke="#2C001B" stroke-width="1.5" stroke-miterlimit="10" stroke-linecap="round" stroke-linejoin="round"/>
</svg>
