<svg width="40" height="40" viewBox="0 0 40 40" fill="none" xmlns="http://www.w3.org/2000/svg">
<path d="M14.2424 35C16.5855 35 18.4848 32.7614 18.4848 30C18.4848 27.2386 16.5855 25 14.2424 25C11.8994 25 10 27.2386 10 30C10 32.7614 11.8994 35 14.2424 35Z" stroke="#2C001B" stroke-width="1.5" stroke-miterlimit="10" stroke-linecap="round" stroke-linejoin="round"/>
<path d="M25.7576 35C28.1006 35 30 32.7614 30 30C30 27.2386 28.1006 25 25.7576 25C23.4145 25 21.5151 27.2386 21.5151 30C21.5151 32.7614 23.4145 35 25.7576 35Z" stroke="#2C001B" stroke-width="1.5" stroke-miterlimit="10" stroke-linecap="round" stroke-linejoin="round"/>
<path d="M15.3535 25.102L20 20.5102" stroke="#2C001B" stroke-width="1.5" stroke-miterlimit="10" stroke-linecap="round" stroke-linejoin="round"/>
<path d="M24.6465 25.102L20 20.5102" stroke="#2C001B" stroke-width="1.5" stroke-miterlimit="10" stroke-linecap="round" stroke-linejoin="round"/>
<path d="M24.6465 12.1429L20 16.8368" stroke="#2C001B" stroke-width="1.5" stroke-miterlimit="10" stroke-linecap="round" stroke-linejoin="round"/>
<path d="M15.3535 12.1429L20 16.8368" stroke="#2C001B" stroke-width="1.5" stroke-miterlimit="10" stroke-linecap="round" stroke-linejoin="round"/>
<path d="M19.9998 20.5102C21.004 20.5102 21.818 19.6879 21.818 18.6735C21.818 17.6591 21.004 16.8367 19.9998 16.8367C18.9957 16.8367 18.1816 17.6591 18.1816 18.6735C18.1816 19.6879 18.9957 20.5102 19.9998 20.5102Z" fill="#E94B65" stroke="#2C001B" stroke-width="1.5" stroke-miterlimit="10" stroke-linecap="round" stroke-linejoin="round"/>
<path d="M26.8686 11.9388C22.2222 10.4082 17.5757 10.4082 12.9292 11.9388V6.73471C17.5757 5.51022 22.2222 5.51022 26.8686 6.73471V11.9388Z" fill="#E94B65" stroke="#2C001B" stroke-width="1.5" stroke-miterlimit="10" stroke-linecap="round" stroke-linejoin="round"/>
<path d="M13 6.73469V5" stroke="#2C001B" stroke-width="1.5" stroke-miterlimit="10" stroke-linecap="round" stroke-linejoin="round"/>
<path d="M26.8687 6.73469V5" stroke="#2C001B" stroke-width="1.5" stroke-miterlimit="10" stroke-linecap="round" stroke-linejoin="round"/>
<path d="M13.0303 10C13.0303 10 13.9394 9.08165 15.5555 8.87756" stroke="#2C001B" stroke-width="1.5" stroke-miterlimit="10" stroke-linecap="round" stroke-linejoin="round"/>
<path d="M26.8689 10.2041C26.8689 10.2041 25.6568 9.28575 24.9497 9.08167" stroke="#2C001B" stroke-width="1.5" stroke-miterlimit="10" stroke-linecap="round" stroke-linejoin="round"/>
<path d="M22.9293 8.97961C23.264 8.97961 23.5353 8.70551 23.5353 8.36738C23.5353 8.02924 23.264 7.75513 22.9293 7.75513C22.5946 7.75513 22.3232 8.02924 22.3232 8.36738C22.3232 8.70551 22.5946 8.97961 22.9293 8.97961Z" fill="#2C001B"/>
</svg>
