<svg width="41" height="40" viewBox="0 0 41 40" fill="none" xmlns="http://www.w3.org/2000/svg">
<path d="M34.3349 9.49603V19.2283C34.3349 20.9291 32.9175 22.3464 31.2168 22.3464C29.516 22.3464 28.0986 20.9291 28.0986 19.2283V9.49603H34.3349Z" stroke="#2C001B" stroke-width="1.5" stroke-miterlimit="10" stroke-linecap="round" stroke-linejoin="round"/>
<path d="M34.3345 19.2284V33.1181H25.4526V20.5512C25.4526 18 26.492 15.7323 28.1928 14.126V19.2284C28.1928 20.9292 29.6101 22.3465 31.3109 22.3465C32.9172 22.3465 34.3345 20.9292 34.3345 19.2284Z" stroke="#2C001B" stroke-width="1.5" stroke-miterlimit="10" stroke-linecap="round" stroke-linejoin="round"/>
<path d="M16.4765 10.5354V20.2677C16.4765 21.9685 15.0592 23.3858 13.3584 23.3858C11.6576 23.3858 10.2402 21.9685 10.2402 20.2677V10.5354H16.4765Z" stroke="#2C001B" stroke-width="1.5" stroke-miterlimit="10" stroke-linecap="round" stroke-linejoin="round"/>
<path d="M16.4764 20.2677V33.1181H7.5V21.7795C7.5 19.2283 8.53936 16.9606 10.2402 15.3543V20.2677C10.2402 21.9685 11.6575 23.3858 13.3583 23.3858C15.0591 23.3858 16.4764 21.9685 16.4764 20.2677Z" stroke="#2C001B" stroke-width="1.5" stroke-miterlimit="10" stroke-linecap="round" stroke-linejoin="round"/>
<path d="M25.4525 6V15.7323C25.4525 17.4331 24.0352 18.8504 22.3344 18.8504C20.6336 18.8504 19.2163 17.4331 19.2163 15.7323V6H25.4525Z" stroke="#2C001B" stroke-width="1.5" stroke-miterlimit="10" stroke-linecap="round" stroke-linejoin="round"/>
<path d="M25.4529 15.6378V33.1181H16.4766V16.9606C16.4766 14.4094 17.5159 12.1417 19.2167 10.5354V15.6378C19.2167 17.3385 20.6341 18.7559 22.3348 18.7559C24.0356 18.7559 25.4529 17.433 25.4529 15.6378Z" stroke="#2C001B" stroke-width="1.5" stroke-miterlimit="10" stroke-linecap="round" stroke-linejoin="round"/>
</svg>
