<svg width="41" height="40" viewBox="0 0 41 40" fill="none" xmlns="http://www.w3.org/2000/svg">
<path d="M28 31.4L26.2 30.9L26.7 32.7C24.9 34.3 22.8 35.3 20.5 35.3C18.3 35.3 16.2 34.3 14.3 32.7L14.8 30.9L13 31.4C9.7 27.8 7.5 22.2 7.5 17.9C7.5 15.3 8.30001 12.8 9.70001 10.7L12.9 11.6L12 8.2C14.3 6.2 17.3 5 20.6 5C23.9 5 26.9 6.2 29.2 8.2L28.3 11.6L31.5 10.7C32.9 12.8 33.7 15.2 33.7 17.9C33.5 22.2 31.4 27.7 28 31.4Z" stroke="#2C001B" stroke-width="1.5" stroke-miterlimit="10" stroke-linecap="round" stroke-linejoin="round"/>
<path d="M15.0998 21.7C16.9224 21.7 18.3998 20.8046 18.3998 19.7C18.3998 18.5954 16.9224 17.7 15.0998 17.7C13.2773 17.7 11.7998 18.5954 11.7998 19.7C11.7998 20.8046 13.2773 21.7 15.0998 21.7Z" stroke="#2C001B" stroke-width="1.5" stroke-miterlimit="10" stroke-linecap="round" stroke-linejoin="round"/>
<path d="M25.9997 21.7C27.8222 21.7 29.2997 20.8046 29.2997 19.7C29.2997 18.5954 27.8222 17.7 25.9997 17.7C24.1772 17.7 22.6997 18.5954 22.6997 19.7C22.6997 20.8046 24.1772 21.7 25.9997 21.7Z" stroke="#2C001B" stroke-width="1.5" stroke-miterlimit="10" stroke-linecap="round" stroke-linejoin="round"/>
<path d="M20.5 29.6C22.1569 29.6 23.5 29.018 23.5 28.3C23.5 27.582 22.1569 27 20.5 27C18.8431 27 17.5 27.582 17.5 28.3C17.5 29.018 18.8431 29.6 20.5 29.6Z" stroke="#2C001B" stroke-width="1.5" stroke-miterlimit="10" stroke-linecap="round" stroke-linejoin="round"/>
</svg>
