<svg width="40" height="40" viewBox="0 0 40 40" fill="none" xmlns="http://www.w3.org/2000/svg">
<path d="M26.1999 18.2627C24.0999 18.2627 22.3999 19.9627 22.3999 22.0627V32.1627H29.8999V22.0627C29.9999 19.9627 28.2999 18.2627 26.1999 18.2627Z" fill="#E94B65" stroke="#2C001B" stroke-width="1.5" stroke-miterlimit="10" stroke-linecap="round" stroke-linejoin="round"/>
<path d="M22.5 29.3627H30" stroke="#2C001B" stroke-width="1.5" stroke-miterlimit="10" stroke-linecap="round" stroke-linejoin="round"/>
<path d="M17.9 32.1626H10V21.8626C10 21.1626 10.6 20.5626 11.3 20.5626H16.6C17.3 20.5626 17.9 21.1626 17.9 21.8626V32.1626Z" fill="#E94B65" stroke="#2C001B" stroke-width="1.5" stroke-miterlimit="10" stroke-linecap="round" stroke-linejoin="round"/>
<path d="M10.2002 23.3627H17.8002" stroke="#2C001B" stroke-width="1.5" stroke-miterlimit="10" stroke-linecap="round" stroke-linejoin="round"/>
<path d="M17.0999 14.3627H10.8999V20.5627H17.0999V14.3627Z" stroke="#2C001B" stroke-width="1.5" stroke-miterlimit="10" stroke-linecap="round" stroke-linejoin="round"/>
<path d="M16.0998 14.3626H11.7998V10.1627L15.1998 8.06265C15.5998 7.86265 16.0998 8.16265 16.0998 8.66265V14.3626Z" fill="#E94B65" stroke="#2C001B" stroke-width="1.5" stroke-miterlimit="10" stroke-linecap="round" stroke-linejoin="round"/>
</svg>
