<svg width="41" height="40" viewBox="0 0 41 40" fill="none" xmlns="http://www.w3.org/2000/svg">
<path d="M26.6999 18.2627C24.5999 18.2627 22.8999 19.9627 22.8999 22.0627V32.1627H30.3999V22.0627C30.4999 19.9627 28.7999 18.2627 26.6999 18.2627Z" stroke="#2C001B" stroke-width="1.5" stroke-miterlimit="10" stroke-linecap="round" stroke-linejoin="round"/>
<path d="M23 29.3627H30.5" stroke="#2C001B" stroke-width="1.5" stroke-miterlimit="10" stroke-linecap="round" stroke-linejoin="round"/>
<path d="M18.4 32.1626H10.5V21.8626C10.5 21.1626 11.1 20.5626 11.8 20.5626H17.1C17.8 20.5626 18.4 21.1626 18.4 21.8626V32.1626Z" stroke="#2C001B" stroke-width="1.5" stroke-miterlimit="10" stroke-linecap="round" stroke-linejoin="round"/>
<path d="M10.7002 23.3627H18.3002" stroke="#2C001B" stroke-width="1.5" stroke-miterlimit="10" stroke-linecap="round" stroke-linejoin="round"/>
<path d="M17.5999 14.3627H11.3999V20.5627H17.5999V14.3627Z" stroke="#2C001B" stroke-width="1.5" stroke-miterlimit="10" stroke-linecap="round" stroke-linejoin="round"/>
<path d="M16.5998 14.3626H12.2998V10.1627L15.6998 8.06265C16.0998 7.86265 16.5998 8.16265 16.5998 8.66265V14.3626Z" stroke="#2C001B" stroke-width="1.5" stroke-miterlimit="10" stroke-linecap="round" stroke-linejoin="round"/>
</svg>
