<svg width="41" height="40" viewBox="0 0 41 40" fill="none" xmlns="http://www.w3.org/2000/svg">
<path d="M17.7 15.1C17.7 15.1 18.8 22.5 25.6 23.5C32.4 24.5 31.6 30.1 31.6 30.1C31.6 30.1 40.5 17.8 29.3 9.89999C29.3 9.89999 27.3 4 21.4 4C15.5 4 12.6 9.89999 12.6 9.89999C12.6 9.89999 6.5 10.4 6.5 17C6.5 23.6 11.9 24.4 11.9 24.4C11.9 24.4 10.8 16.9 17.7 15.1Z" stroke="#2C001B" stroke-width="1.5" stroke-miterlimit="10" stroke-linecap="round" stroke-linejoin="round"/>
<path d="M29.8999 26.4C29.8999 26.4 25.7999 35.9 20.6999 35.9C16.7428 35.9 13.6626 30.3254 12.5498 28" stroke="#2C001B" stroke-width="1.5" stroke-miterlimit="10" stroke-linecap="round" stroke-linejoin="round"/>
</svg>
