<svg width="40" height="40" viewBox="0 0 40 40" fill="none" xmlns="http://www.w3.org/2000/svg">
<path d="M14.9999 21.275V27.975C14.9999 29.775 13.4999 31.275 11.6999 31.275C9.89991 31.275 8.3999 29.775 8.3999 27.975V21.375" fill="#E94B65"/>
<path d="M14.9999 21.275V27.975C14.9999 29.775 13.4999 31.275 11.6999 31.275C9.89991 31.275 8.3999 29.775 8.3999 27.975V21.375" stroke="#2C001B" stroke-width="1.5" stroke-miterlimit="10" stroke-linecap="round" stroke-linejoin="round"/>
<path d="M26 20.575L10.3 21.575C6.8 21.575 4 18.775 4 15.275C4 12.275 6.2 9.675 9 9.075C9.7 8.975 10.4 8.975 11.1 9.075L26 10.975V20.575Z" fill="#E94B65" stroke="#2C001B" stroke-width="1.5" stroke-miterlimit="10" stroke-linecap="round" stroke-linejoin="round"/>
<path d="M26 20.675L29.8 21.875V9.875L26 11.075V20.675Z" fill="white" stroke="#2C001B" stroke-width="1.5" stroke-miterlimit="10" stroke-linecap="round" stroke-linejoin="round"/>
<path d="M10.8 19.075C12.8987 19.075 14.6 17.3737 14.6 15.275C14.6 13.1763 12.8987 11.475 10.8 11.475C8.70132 11.475 7 13.1763 7 15.275C7 17.3737 8.70132 19.075 10.8 19.075Z" fill="white" stroke="#2C001B" stroke-width="1.5" stroke-miterlimit="10" stroke-linecap="round" stroke-linejoin="round"/>
<path d="M32.2998 16.075H36.7998" stroke="#2C001B" stroke-width="1.5" stroke-miterlimit="10" stroke-linecap="round" stroke-linejoin="round"/>
<path d="M32.2998 13.275L36.0998 10.975" stroke="#2C001B" stroke-width="1.5" stroke-miterlimit="10" stroke-linecap="round" stroke-linejoin="round"/>
<path d="M36.0998 21.075L32.2998 18.875" stroke="#2C001B" stroke-width="1.5" stroke-miterlimit="10" stroke-linecap="round" stroke-linejoin="round"/>
</svg>
